<svg width="22" height="21" viewBox="0 0 22 21" fill="none" xmlns="http://www.w3.org/2000/svg">
<path d="M10 13.5H7C5.13623 13.5 4.20435 13.5 3.46927 13.8045C2.48915 14.2105 1.71046 14.9892 1.30448 15.9693C1 16.7044 1 17.6362 1 19.5M14.5 1.79076C15.9659 2.38415 17 3.82131 17 5.5M10.9999 20L13.025 19.595C13.2015 19.5597 13.2898 19.542 13.3721 19.5097C13.4452 19.4811 13.5147 19.4439 13.579 19.399C13.6516 19.3484 13.7152 19.2848 13.8426 19.1574L20.5 12.5C21.0524 11.9477 21.0523 11.0523 20.5 10.5C19.9477 9.9477 19.0523 9.94771 18.5 10.5L11.8425 17.1575C11.7152 17.2848 11.6516 17.3484 11.601 17.421C11.5561 17.4853 11.5189 17.5548 11.4902 17.6278C11.458 17.7102 11.4403 17.7984 11.405 17.975L10.9999 20ZM12.5 5.5C12.5 7.70914 10.7091 9.5 8.5 9.5C6.29086 9.5 4.5 7.70914 4.5 5.5C4.5 3.29086 6.29086 1.5 8.5 1.5C10.7091 1.5 12.5 3.29086 12.5 5.5Z" stroke="#503CAE" stroke-width="2" stroke-linecap="round" stroke-linejoin="round"/>
</svg>
